<svg id="Capa_1" enable-background="new 0 0 512 512" height="512" viewBox="0 0 512 512" width="512" xmlns="http://www.w3.org/2000/svg"><g><path d="m99.425 55.998h313.15v-11.729c0-11.147-9.029-20.188-20.176-20.203l-272.744-.366c-11.169-.015-20.23 9.035-20.23 20.203z" fill="#e2f4f9"/><path d="m397.423 120.611h107.077v-11.781c0-11.127-8.997-20.159-20.124-20.203l-86.953-.341z" fill="#b1e4f9"/><path d="m114.577 120.611h-107.077v-11.781c0-11.127 8.997-20.159 20.124-20.203l86.953-.341z" fill="#b1e4f9"/><path d="m342.874 55.998v-24.254c0-2.64-.233-5.225-.658-7.745l-172.391-.231c-.451 2.594-.699 5.256-.699 7.977v24.254h173.748z" fill="#b1e4f9"/><path d="m7.5 152.963h107.077v351.537h-107.077z" fill="#5c90b9" transform="matrix(-1 0 0 -1 122.077 657.463)"/><path d="m88.313 152.963h26.264v351.537h-26.264z" fill="#4a80aa" transform="matrix(-1 0 0 -1 202.89 657.463)"/><path d="m7.5 120.638h107.077v32.325h-107.077z" fill="#da4a54" transform="matrix(-1 0 0 -1 122.077 273.602)"/><path d="m88.313 120.638h26.264v32.325h-26.264z" fill="#d82e3d" transform="matrix(-1 0 0 -1 202.89 273.602)"/><path d="m44.876 187.309h32.325v64.65h-32.325z" fill="#b1e4f9" transform="matrix(-1 0 0 -1 122.077 439.268)"/><path d="m44.876 284.285h32.325v64.65h-32.325z" fill="#b1e4f9" transform="matrix(-1 0 0 -1 122.077 633.22)"/><path d="m44.876 381.26h32.325v64.65h-32.325z" fill="#b1e4f9" transform="matrix(-1 0 0 -1 122.077 827.171)"/><path d="m114.577 88.313h282.846v416.187h-282.846z" fill="#81a7c6"/><path d="m397.423 152.963h107.077v351.537h-107.077z" fill="#5c90b9"/><path d="m397.423 152.963h26.264v351.537h-26.264z" fill="#4a80aa"/><path d="m114.577 88.313v20.203h54.549v4.041c0 25.663 20.804 46.467 46.467 46.467h80.813c25.663 0 46.467-20.804 46.467-46.467v-4.041h26.264c5.579 0 10.102 4.523 10.102 10.102v385.882h18.183v-416.187z" fill="#5c90b9"/><path d="m99.425 55.988h313.15v32.325h-313.15z" fill="#dd636e"/><path d="m169.126 55.988h173.748v32.325h-173.748z" fill="#da4a54"/><path d="m397.423 120.638h107.077v32.325h-107.077z" fill="#da4a54"/><path d="m397.423 120.638h26.264v32.325h-26.264z" fill="#d82e3d"/><g fill="#e2f4f9"><path d="m146.902 187.309h32.325v64.65h-32.325z"/><path d="m208.859 187.309h32.325v64.65h-32.325z"/><path d="m270.816 187.309h32.325v64.65h-32.325z"/><path d="m332.772 187.309h32.325v64.65h-32.325z"/><path d="m146.902 284.285h32.325v64.65h-32.325z"/><path d="m208.859 284.285h32.325v64.65h-32.325z"/><path d="m270.816 284.285h32.325v64.65h-32.325z"/><path d="m332.772 284.285h32.325v64.65h-32.325z"/></g><path d="m208.859 407.524h47.141v96.976h-47.141z" fill="#75cef9"/><path d="m256 407.524h47.141v96.976h-47.141z" fill="#75cef9"/><path d="m434.799 187.309h32.325v64.65h-32.325z" fill="#b1e4f9"/><path d="m434.799 284.285h32.325v64.65h-32.325z" fill="#b1e4f9"/><path d="m434.799 381.26h32.325v64.65h-32.325z" fill="#b1e4f9"/><g><path d="m191.35 112.557v-80.813c0-13.39 10.854-24.244 24.244-24.244h80.813c13.39 0 24.244 10.854 24.244 24.244v80.813c0 13.39-10.854 24.244-24.244 24.244h-80.813c-13.39 0-24.244-10.855-24.244-24.244z" fill="#f4dd45"/><path d="m296.406 7.5h-21.213c13.39 0 24.244 10.854 24.244 24.244v80.813c0 13.39-10.854 24.244-24.244 24.244h21.213c13.39 0 24.244-10.854 24.244-24.244v-80.813c0-13.39-10.854-24.244-24.244-24.244z" fill="#ecc32e"/></g><g><path d="m512 108.83c0-15.216-12.379-27.643-27.589-27.703l-64.336-.305v-36.552c0-15.261-12.411-27.688-27.662-27.703l-68.188-.094c-5.406-9.81-15.848-16.473-27.819-16.473h-80.812c-11.899 0-22.284 6.584-27.718 16.297l-68.204-.094c-.018 0-.034 0-.052 0-7.388 0-14.334 2.873-19.563 8.093-5.244 5.234-8.132 12.199-8.132 19.61v36.915l-64.33.305c-15.216.062-27.595 12.488-27.595 27.704v74.93c0 4.143 3.357 7.5 7.5 7.5s7.5-3.357 7.5-7.5v-23.296h92.08v267.946c0 4.143 3.357 7.5 7.5 7.5s7.5-3.357 7.5-7.5v-332.597h61.77v16.743c0 17.504 14.24 31.744 31.744 31.744h80.812c17.504 0 31.744-14.24 31.744-31.744v-16.743h61.77v401.187h-79.279v-89.476c0-4.143-3.357-7.5-7.5-7.5h-94.281c-4.143 0-7.5 3.357-7.5 7.5v89.476h-79.28v-33.59c0-4.143-3.357-7.5-7.5-7.5s-7.5 3.357-7.5 7.5v33.59h-92.08v-278.24c0-4.143-3.357-7.5-7.5-7.5s-7.5 3.357-7.5 7.5v285.74c0 4.143 3.357 7.5 7.5 7.5h497c4.143 0 7.5-3.357 7.5-7.5v-281.54c0-4.143-3.357-7.5-7.5-7.5s-7.5 3.357-7.5 7.5v274.04h-92.08v-336.536h92.08v27.496c0 4.143 3.357 7.5 7.5 7.5s7.5-3.357 7.5-7.5zm-119.604-77.264c6.991.007 12.68 5.705 12.68 12.703v4.219h-76.926v-16.744c0-.089-.006-.177-.007-.266zm-281.743 3.346c2.397-2.393 5.581-3.709 8.971-3.709h.023l64.214.088c-.002.151-.011.301-.011.453v16.744h-76.925v-4.582c0-3.399 1.324-6.594 3.728-8.994zm-95.653 110.552v-17.324h92.08v17.324zm92.08-32.324h-92.08v-4.31c0-6.977 5.677-12.676 12.659-12.703l79.421-.313zm-.155-32.327v-17.325h76.925v17.325zm206.225 31.744c0 9.232-7.512 16.744-16.744 16.744h-80.812c-9.232 0-16.744-7.512-16.744-16.744v-80.813c0-9.232 7.512-16.744 16.744-16.744h80.812c9.232 0 16.744 7.512 16.744 16.744zm15-49.069h76.925v17.325h-76.925zm156.197 32.639c6.976.027 12.653 5.727 12.653 12.703v4.31h-92.08v-17.327zm-267.988 318.897h32.141v81.976h-32.141zm47.141 81.976v-81.976h32.141v81.976zm141.42-351.536v-17.324h92.08v17.324z"/><path d="m44.876 259.459h32.325c4.143 0 7.5-3.357 7.5-7.5v-64.65c0-4.143-3.357-7.5-7.5-7.5h-32.325c-4.143 0-7.5 3.357-7.5 7.5v64.65c0 4.143 3.357 7.5 7.5 7.5zm7.5-64.65h17.325v49.65h-17.325z"/><path d="m37.376 348.935c0 4.143 3.357 7.5 7.5 7.5h32.325c4.143 0 7.5-3.357 7.5-7.5v-64.65c0-4.143-3.357-7.5-7.5-7.5h-32.325c-4.143 0-7.5 3.357-7.5 7.5zm15-57.151h17.325v49.65h-17.325z"/><path d="m37.376 445.91c0 4.143 3.357 7.5 7.5 7.5h32.325c4.143 0 7.5-3.357 7.5-7.5v-64.65c0-4.143-3.357-7.5-7.5-7.5h-32.325c-4.143 0-7.5 3.357-7.5 7.5zm15-57.15h17.325v49.65h-17.325z"/><path d="m146.902 259.459h32.325c4.143 0 7.5-3.357 7.5-7.5v-64.65c0-4.143-3.357-7.5-7.5-7.5h-32.325c-4.143 0-7.5 3.357-7.5 7.5v64.65c0 4.143 3.358 7.5 7.5 7.5zm7.5-64.65h17.325v49.65h-17.325z"/><path d="m208.859 259.459h32.325c4.143 0 7.5-3.357 7.5-7.5v-64.65c0-4.143-3.357-7.5-7.5-7.5h-32.325c-4.143 0-7.5 3.357-7.5 7.5v64.65c0 4.143 3.358 7.5 7.5 7.5zm7.5-64.65h17.325v49.65h-17.325z"/><path d="m270.815 259.459h32.325c4.143 0 7.5-3.357 7.5-7.5v-64.65c0-4.143-3.357-7.5-7.5-7.5h-32.325c-4.143 0-7.5 3.357-7.5 7.5v64.65c0 4.143 3.358 7.5 7.5 7.5zm7.5-64.65h17.325v49.65h-17.325z"/><path d="m332.772 259.459h32.325c4.143 0 7.5-3.357 7.5-7.5v-64.65c0-4.143-3.357-7.5-7.5-7.5h-32.325c-4.143 0-7.5 3.357-7.5 7.5v64.65c0 4.143 3.358 7.5 7.5 7.5zm7.5-64.65h17.325v49.65h-17.325z"/><path d="m474.624 187.309c0-4.143-3.357-7.5-7.5-7.5h-32.325c-4.143 0-7.5 3.357-7.5 7.5v64.65c0 4.143 3.357 7.5 7.5 7.5h32.325c4.143 0 7.5-3.357 7.5-7.5zm-15 57.15h-17.325v-49.65h17.325z"/><path d="m474.624 284.284c0-4.143-3.357-7.5-7.5-7.5h-32.325c-4.143 0-7.5 3.357-7.5 7.5v64.65c0 4.143 3.357 7.5 7.5 7.5h32.325c4.143 0 7.5-3.357 7.5-7.5zm-15 57.151h-17.325v-49.65h17.325z"/><path d="m467.124 373.76h-32.325c-4.143 0-7.5 3.357-7.5 7.5v64.65c0 4.143 3.357 7.5 7.5 7.5h32.325c4.143 0 7.5-3.357 7.5-7.5v-64.65c0-4.143-3.357-7.5-7.5-7.5zm-7.5 64.65h-17.325v-49.65h17.325z"/><path d="m139.402 348.935c0 4.143 3.357 7.5 7.5 7.5h32.325c4.143 0 7.5-3.357 7.5-7.5v-64.65c0-4.143-3.357-7.5-7.5-7.5h-32.325c-4.143 0-7.5 3.357-7.5 7.5zm15-57.151h17.325v49.65h-17.325z"/><path d="m201.359 348.935c0 4.143 3.357 7.5 7.5 7.5h32.325c4.143 0 7.5-3.357 7.5-7.5v-64.65c0-4.143-3.357-7.5-7.5-7.5h-32.325c-4.143 0-7.5 3.357-7.5 7.5zm15-57.151h17.325v49.65h-17.325z"/><path d="m263.315 348.935c0 4.143 3.357 7.5 7.5 7.5h32.325c4.143 0 7.5-3.357 7.5-7.5v-64.65c0-4.143-3.357-7.5-7.5-7.5h-32.325c-4.143 0-7.5 3.357-7.5 7.5zm15-57.151h17.325v49.65h-17.325z"/><path d="m325.272 348.935c0 4.143 3.357 7.5 7.5 7.5h32.325c4.143 0 7.5-3.357 7.5-7.5v-64.65c0-4.143-3.357-7.5-7.5-7.5h-32.325c-4.143 0-7.5 3.357-7.5 7.5zm15-57.151h17.325v49.65h-17.325z"/><path d="m278.369 32.325c-4.143 0-7.5 3.357-7.5 7.5v23.717h-29.738v-23.717c0-4.143-3.357-7.5-7.5-7.5s-7.5 3.357-7.5 7.5v64.65c0 4.143 3.357 7.5 7.5 7.5s7.5-3.357 7.5-7.5v-25.933h29.738v25.934c0 4.143 3.357 7.5 7.5 7.5s7.5-3.357 7.5-7.5v-64.65c0-4.143-3.357-7.501-7.5-7.501z"/></g></g></svg>